<svg width="66" height="66" viewBox="0 0 66 66" fill="none" xmlns="http://www.w3.org/2000/svg">
<rect width="66" height="66" rx="33" fill="#54CD4C"/>
<path d="M34.74 48.285L32.25 42.525C34.65 41.655 36.855 40.5 38.895 39.12L34.725 48.285M23.475 33.75L17.715 31.275L26.88 27.105C25.4727 29.1695 24.3288 31.4018 23.475 33.75ZM47.49 18.525C47.49 18.525 50.67 25.965 42.165 34.5C38.865 37.755 35.295 39.75 32.07 41.01C30.96 41.43 29.715 41.16 28.89 40.32L25.695 37.125C24.855 36.285 24.585 35.055 24.99 33.93C26.25 30.75 28.245 27.135 31.5 23.835C40.035 15.324 47.49 18.525 47.49 18.525ZM24.375 48H22.26L28.395 41.85C28.845 42.165 29.34 42.39 29.85 42.525L24.375 48ZM18 48V45.885L25.155 38.715L27.3 40.845L20.115 48H18ZM18 43.74V41.625L23.475 36.15C23.61 36.675 23.835 37.17 24.15 37.605L18 43.74ZM39 24C38.2043 24 37.4413 24.316 36.8787 24.8787C36.316 25.4413 36 26.2043 36 27C36 27.7956 36.316 28.5587 36.8787 29.1213C37.4413 29.6839 38.2043 30 39 30C40.665 30 42 28.665 42 27C42 26.2043 41.6839 25.4413 41.1213 24.8787C40.5587 24.316 39.7956 24 39 24Z" fill="black"/>
</svg>
