<svg width="66" height="66" viewBox="0 0 66 66" fill="none" xmlns="http://www.w3.org/2000/svg">
<rect width="66" height="66" rx="33" fill="#54CD4C"/>
<path d="M46.5 39H19.5V21H46.5M46.5 18H19.5C17.835 18 16.5 19.335 16.5 21V39C16.5 39.7957 16.8161 40.5587 17.3787 41.1213C17.9413 41.6839 18.7044 42 19.5 42H30V45H27V48H39V45H36V42H46.5C47.2956 42 48.0587 41.6839 48.6213 41.1213C49.1839 40.5587 49.5 39.7957 49.5 39V21C49.5 20.2044 49.1839 19.4413 48.6213 18.8787C48.0587 18.3161 47.2956 18 46.5 18Z" fill="black"/>
</svg>
