<svg width="334" height="400" viewBox="0 0 334 400" fill="none" xmlns="http://www.w3.org/2000/svg">
<ellipse cx="166.527" cy="57.4345" rx="166.527" ry="57.4345" transform="matrix(0.999971 -0.0076199 0.00552551 0.999985 0 284.538)" fill="#A29C9C" fill-opacity="0.6"/>
<path d="M138.616 9.47131C152.101 1.44057 168.886 1.11524 182.647 8.61785L292.245 68.3695C306.006 75.8721 314.653 90.022 314.93 105.555C315.456 135.14 316.357 185.822 317.131 229.318C317.407 244.851 309.27 259.355 295.785 267.386L188.388 331.343C174.903 339.374 158.118 339.699 144.357 332.197L34.7596 272.445C20.9981 264.942 12.3505 250.752 12.0742 235.218L9.87368 111.509C9.59737 95.9757 17.7343 81.4596 31.2195 73.4289L138.616 9.47131Z" fill="#26A768"/>
<path fill-rule="evenodd" clip-rule="evenodd" d="M178.29 241.75C174.601 228.425 167.301 223.729 138.718 204.561C110.136 185.393 107.789 124.04 107.789 124.04C107.789 124.04 125.746 145.647 144.059 151.99C162.372 158.333 176.198 177.042 177.658 188.55L176.538 142.43C176.538 142.43 178.12 125.654 190.544 118.343C202.966 111.032 214.086 101.142 215.829 93.2936C215.829 93.2936 221.711 124.065 210.056 139.175C198.4 154.286 182.155 158.321 180.739 166.908L182.113 261.025L178.968 260.731L178.29 241.75Z" fill="#FFFEFB"/>
<path fill-rule="evenodd" clip-rule="evenodd" d="M166.058 128.125C166.058 128.125 169.169 126.576 158.619 115.617C148.068 104.658 157.036 79.5531 157.036 79.5531C157.036 79.5531 159.364 86.9504 164.482 92.4328C169.6 97.9152 175.838 113.423 166.058 128.125Z" fill="#FFFEFB"/>
</svg>
