<svg width="148" height="50" viewBox="0 0 148 50" fill="none" xmlns="http://www.w3.org/2000/svg">
<path fill-rule="evenodd" clip-rule="evenodd" d="M17.4482 42.0019C16.5676 38.5417 14.727 37.2922 7.52357 32.1979C0.320154 27.1039 0 11.2445 0 11.2445C0 11.2445 4.48213 16.9155 9.12432 18.6456C13.7665 20.3757 17.2081 25.2776 17.5282 28.2572L17.4518 16.3388C17.4518 16.3388 17.9314 12.0135 21.1335 10.1872C24.3351 8.36104 27.2164 5.86208 27.6966 3.84355C27.6966 3.84355 29.0573 11.8213 26.0159 15.6659C22.9744 19.5106 18.8124 20.4717 18.4123 22.6824L18.3358 47L17.5349 46.9082L17.4482 42.0019Z" fill="#54CD4C"/>
<path fill-rule="evenodd" clip-rule="evenodd" d="M14.8438 12.5913C14.8438 12.5913 15.6441 12.2069 13.003 9.3233C10.3617 6.43983 12.7628 0 12.7628 0C12.7628 0 13.3231 1.9224 14.6037 3.36413C15.8843 4.80587 17.4049 8.84279 14.8438 12.5913Z" fill="#54CD4C"/>
<path d="M39.34 27.96V30.7H35.62V42H32.2V30.7H28.48V27.96H39.34ZM51.5764 36.24C51.5764 36.56 51.5564 36.8933 51.5164 37.24H43.7764C43.8297 37.9333 44.0497 38.4667 44.4364 38.84C44.8364 39.2 45.3231 39.38 45.8964 39.38C46.7497 39.38 47.3431 39.02 47.6764 38.3H51.3164C51.1297 39.0333 50.7897 39.6933 50.2964 40.28C49.8164 40.8667 49.2097 41.3267 48.4764 41.66C47.7431 41.9933 46.9231 42.16 46.0164 42.16C44.9231 42.16 43.9497 41.9267 43.0964 41.46C42.2431 40.9933 41.5764 40.3267 41.0964 39.46C40.6164 38.5933 40.3764 37.58 40.3764 36.42C40.3764 35.26 40.6097 34.2467 41.0764 33.38C41.5564 32.5133 42.2231 31.8467 43.0764 31.38C43.9297 30.9133 44.9097 30.68 46.0164 30.68C47.0964 30.68 48.0564 30.9067 48.8964 31.36C49.7364 31.8133 50.3897 32.46 50.8564 33.3C51.3364 34.14 51.5764 35.12 51.5764 36.24ZM48.0764 35.34C48.0764 34.7533 47.8764 34.2867 47.4764 33.94C47.0764 33.5933 46.5764 33.42 45.9764 33.42C45.4031 33.42 44.9164 33.5867 44.5164 33.92C44.1297 34.2533 43.8897 34.7267 43.7964 35.34H48.0764ZM52.7006 36.4C52.7006 35.2533 52.914 34.2467 53.3406 33.38C53.7806 32.5133 54.374 31.8467 55.1206 31.38C55.8673 30.9133 56.7006 30.68 57.6206 30.68C58.4073 30.68 59.094 30.84 59.6806 31.16C60.2806 31.48 60.7406 31.9 61.0606 32.42V30.84H64.4806V42H61.0606V40.42C60.7273 40.94 60.2606 41.36 59.6606 41.68C59.074 42 58.3873 42.16 57.6006 42.16C56.694 42.16 55.8673 41.9267 55.1206 41.46C54.374 40.98 53.7806 40.3067 53.3406 39.44C52.914 38.56 52.7006 37.5467 52.7006 36.4ZM61.0606 36.42C61.0606 35.5667 60.8206 34.8933 60.3406 34.4C59.874 33.9067 59.3006 33.66 58.6206 33.66C57.9406 33.66 57.3606 33.9067 56.8806 34.4C56.414 34.88 56.1806 35.5467 56.1806 36.4C56.1806 37.2533 56.414 37.9333 56.8806 38.44C57.3606 38.9333 57.9406 39.18 58.6206 39.18C59.3006 39.18 59.874 38.9333 60.3406 38.44C60.8206 37.9467 61.0606 37.2733 61.0606 36.42ZM70.3748 39.36H74.8548V42H66.9548V27.96H70.3748V39.36ZM78.2061 29.68C77.6061 29.68 77.1128 29.5067 76.7261 29.16C76.3528 28.8 76.1661 28.36 76.1661 27.84C76.1661 27.3067 76.3528 26.8667 76.7261 26.52C77.1128 26.16 77.6061 25.98 78.2061 25.98C78.7928 25.98 79.2728 26.16 79.6461 26.52C80.0328 26.8667 80.2261 27.3067 80.2261 27.84C80.2261 28.36 80.0328 28.8 79.6461 29.16C79.2728 29.5067 78.7928 29.68 78.2061 29.68ZM79.9061 30.84V42H76.4861V30.84H79.9061ZM89.1845 30.72C90.4912 30.72 91.5312 31.1467 92.3045 32C93.0912 32.84 93.4845 34 93.4845 35.48V42H90.0845V35.94C90.0845 35.1933 89.8912 34.6133 89.5045 34.2C89.1179 33.7867 88.5979 33.58 87.9445 33.58C87.2912 33.58 86.7712 33.7867 86.3845 34.2C85.9979 34.6133 85.8045 35.1933 85.8045 35.94V42H82.3845V30.84H85.8045V32.32C86.1512 31.8267 86.6179 31.44 87.2045 31.16C87.7912 30.8667 88.4512 30.72 89.1845 30.72ZM106.881 30.84V42H103.461V40.48C103.114 40.9733 102.641 41.3733 102.041 41.68C101.454 41.9733 100.801 42.12 100.081 42.12C99.2278 42.12 98.4744 41.9333 97.8211 41.56C97.1678 41.1733 96.6611 40.62 96.3011 39.9C95.9411 39.18 95.7611 38.3333 95.7611 37.36V30.84H99.1611V36.9C99.1611 37.6467 99.3544 38.2267 99.7411 38.64C100.128 39.0533 100.648 39.26 101.301 39.26C101.968 39.26 102.494 39.0533 102.881 38.64C103.268 38.2267 103.461 37.6467 103.461 36.9V30.84H106.881ZM115.938 42L113.798 38.9L111.998 42H108.298L111.978 36.3L108.198 30.84H112.038L114.178 33.92L115.978 30.84H119.678L115.938 36.46L119.778 42H115.938ZM127.735 42.14C126.415 42.14 125.202 41.8333 124.095 41.22C123.002 40.6067 122.129 39.7533 121.475 38.66C120.835 37.5533 120.515 36.3133 120.515 34.94C120.515 33.5667 120.835 32.3333 121.475 31.24C122.129 30.1467 123.002 29.2933 124.095 28.68C125.202 28.0667 126.415 27.76 127.735 27.76C129.055 27.76 130.262 28.0667 131.355 28.68C132.462 29.2933 133.329 30.1467 133.955 31.24C134.595 32.3333 134.915 33.5667 134.915 34.94C134.915 36.3133 134.595 37.5533 133.955 38.66C133.315 39.7533 132.449 40.6067 131.355 41.22C130.262 41.8333 129.055 42.14 127.735 42.14ZM127.735 39.02C128.855 39.02 129.749 38.6467 130.415 37.9C131.095 37.1533 131.435 36.1667 131.435 34.94C131.435 33.7 131.095 32.7133 130.415 31.98C129.749 31.2333 128.855 30.86 127.735 30.86C126.602 30.86 125.695 31.2267 125.015 31.96C124.349 32.6933 124.015 33.6867 124.015 34.94C124.015 36.18 124.349 37.1733 125.015 37.92C125.695 38.6533 126.602 39.02 127.735 39.02ZM141.898 42.14C140.871 42.14 139.951 41.9733 139.138 41.64C138.325 41.3067 137.671 40.8133 137.178 40.16C136.698 39.5067 136.445 38.72 136.418 37.8H140.058C140.111 38.32 140.291 38.72 140.598 39C140.905 39.2667 141.305 39.4 141.798 39.4C142.305 39.4 142.705 39.2867 142.998 39.06C143.291 38.82 143.438 38.4933 143.438 38.08C143.438 37.7333 143.318 37.4467 143.078 37.22C142.851 36.9933 142.565 36.8067 142.218 36.66C141.885 36.5133 141.405 36.3467 140.778 36.16C139.871 35.88 139.131 35.6 138.558 35.32C137.985 35.04 137.491 34.6267 137.078 34.08C136.665 33.5333 136.458 32.82 136.458 31.94C136.458 30.6333 136.931 29.6133 137.878 28.88C138.825 28.1333 140.058 27.76 141.578 27.76C143.125 27.76 144.371 28.1333 145.318 28.88C146.265 29.6133 146.771 30.64 146.838 31.96H143.138C143.111 31.5067 142.945 31.1533 142.638 30.9C142.331 30.6333 141.938 30.5 141.458 30.5C141.045 30.5 140.711 30.6133 140.458 30.84C140.205 31.0533 140.078 31.3667 140.078 31.78C140.078 32.2333 140.291 32.5867 140.718 32.84C141.145 33.0933 141.811 33.3667 142.718 33.66C143.625 33.9667 144.358 34.26 144.918 34.54C145.491 34.82 145.985 35.2267 146.398 35.76C146.811 36.2933 147.018 36.98 147.018 37.82C147.018 38.62 146.811 39.3467 146.398 40C145.998 40.6533 145.411 41.1733 144.638 41.56C143.865 41.9467 142.951 42.14 141.898 42.14Z" fill="#54CD4C"/>
</svg>
